<svg xmlns="http://www.w3.org/2000/svg" viewBox="0 0 400 100" width="100%" height="100%">
  <defs>
    <style>
      .text {
        font-family: 'Arial', sans-serif;
        font-weight: 900;
        font-size: 55px;
        fill: #224b6e;
        letter-spacing: 2px;
      }
      .green-swoosh {
        fill: #78d7b3;
      }
      .blue-swoosh {
        fill: #224b6e;
      }
    </style>
  </defs>

  <!-- Left Icon (The S) -->
  <g transform="translate(10, 10)">
    <!-- Top mint green swoosh -->
    <path class="green-swoosh" d="M 45 0 C 20 0, 0 20, 0 45 C 0 65, 10 75, 20 80 C 35 85, 50 85, 60 70 C 65 60, 60 50, 50 50 C 35 50, 30 40, 30 30 C 30 20, 35 15, 45 15 C 55 15, 60 20, 60 20 L 70 5 C 70 5, 60 0, 45 0 Z" />
    
    <!-- Bottom dark blue swoosh -->
    <path class="blue-swoosh" d="M 35 100 C 60 100, 80 80, 80 55 C 80 35, 70 25, 60 20 C 45 15, 30 15, 20 30 C 15 40, 20 50, 30 50 C 45 50, 50 60, 50 70 C 50 80, 45 85, 35 85 C 25 85, 20 80, 20 80 L 10 95 C 10 95, 20 100, 35 100 Z" />
  </g>

  <!-- Right Text -->
  <text x="110" y="70" class="text">STACKLY</text>
</svg>
